<svg width="18" height="18" viewBox="0 0 18 18" fill="none" xmlns="http://www.w3.org/2000/svg">
<path d="M7.41056 1.68432C8.1144 0.456304 9.8856 0.456304 10.5894 1.68432L11.9586 4.07316C12.2086 4.50926 12.6267 4.82351 13.1152 4.94229L15.8356 5.60386C17.1501 5.92352 17.6767 7.50867 16.8147 8.55129L14.8959 10.8723C14.5912 11.2409 14.4427 11.7139 14.4821 12.1905L14.7277 15.1621C14.8423 16.5493 13.4291 17.5526 12.1573 16.9869L9.74459 15.9136C9.27059 15.7028 8.72941 15.7028 8.25541 15.9136L5.84271 16.9869C4.57091 17.5526 3.15767 16.5493 3.27233 15.1621L3.51795 12.1905C3.55734 11.714 3.40883 11.2409 3.10413 10.8723L1.18528 8.55129C0.323318 7.50867 0.849868 5.92352 2.16435 5.60386L4.88484 4.94229C5.37327 4.82351 5.79143 4.50926 6.04139 4.07316L7.41056 1.68432Z" stroke="#374151" stroke-width="1.5" stroke-linejoin="round"/>
</svg>
