<svg width="22" height="31" viewBox="0 0 22 31" fill="none" xmlns="http://www.w3.org/2000/svg">
<path d="M21.8345 3.42926C21.9068 5.2117 20.7941 6.36448 18.5253 7.2557C15.7508 8.35035 12.8895 9.46438 10.0861 10.5493C6.9936 11.7409 6.21326 13.2036 8.43868 15.1314C7.71614 16.197 5.2017 15.9935 3.81443 15.8482C2.25375 15.2089 1.80577 13.8236 1.89247 12.6902C2.02253 11.0724 3.2942 9.54188 5.04275 8.44722C10.6207 5.62825 16.2132 2.80928 21.8201 0C21.8201 1.14309 21.8201 2.28618 21.8345 3.42926Z" fill="#756EF3"/>
<path d="M8.4533 15.1314C8.4533 15.1314 8.12093 14.9473 7.55735 14.618C4.91286 13.039 1.47357 10.5978 5.04291 8.44725C3.85795 9.04785 2.8753 9.7647 2.03715 10.53C-0.491736 12.7968 -0.000408065 16.4489 0.115198 19.1806C0.173001 20.4884 2.48513 20.779 3.94465 20.2559C5.56314 19.6747 7.28278 19.0353 8.85792 18.4638C11.2567 17.5919 10.0862 16.0032 8.4533 15.1314Z" fill="#756EF3"/>
<path d="M0.16501 27.056C0.0927563 25.2736 1.20547 24.1208 3.47424 23.2296C6.24879 22.1349 9.11004 21.0209 11.9135 19.936C15.006 18.7444 15.7863 17.2817 13.5609 15.3539C14.2834 14.2883 16.7979 14.4918 18.1851 14.6371C19.7458 15.2764 20.1938 16.6617 20.1071 17.7951C19.977 19.4032 18.7054 20.9434 16.9568 22.0381C11.3788 24.857 5.78636 27.676 0.179462 30.4853C0.179462 29.3422 0.179461 28.1991 0.16501 27.056Z" fill="#756EF3"/>
<path d="M13.5467 15.3634C13.5467 15.3634 13.8791 15.5474 14.4427 15.8768C17.0872 17.4558 20.5264 19.8873 16.9571 22.0475C18.1421 21.4469 19.1247 20.7301 19.9629 19.9648C22.4917 17.698 22.0004 14.0459 21.8848 11.3141C21.827 10.0064 19.5149 9.71576 18.0554 10.2389C16.4369 10.8201 14.7172 11.4594 13.1565 12.031C10.7433 12.8932 11.9138 14.4819 13.5467 15.3634Z" fill="#756EF3"/>
</svg>
