<svg width="20" height="20" viewBox="0 0 20 20" fill="none" xmlns="http://www.w3.org/2000/svg">
<g clip-path="url(#clip0_34_1292)">
<path d="M9.99912 6.23285C9.99878 6.22156 9.99836 6.21027 9.9974 6.1989C9.99645 6.18749 9.99504 6.17624 9.99351 6.16503C9.99267 6.15923 9.99244 6.15347 9.99149 6.14763L9.36649 2.39763C9.35304 2.31663 9.32376 2.23907 9.28033 2.16939C9.2369 2.09971 9.18016 2.03927 9.11335 1.99152C9.04655 1.94378 8.971 1.90966 8.89101 1.89113C8.81102 1.8726 8.72816 1.87001 8.64716 1.88351C8.56617 1.89701 8.48863 1.92634 8.41898 1.96982C8.34932 2.0133 8.28892 2.07007 8.24122 2.13691C8.19352 2.20374 8.15945 2.27932 8.14097 2.35932C8.12249 2.43932 8.11995 2.52218 8.1335 2.60317L8.6372 5.6254H7.1875V2.5004C7.1875 2.33464 7.12165 2.17567 7.00444 2.05846C6.88723 1.94125 6.72826 1.8754 6.5625 1.8754C6.39674 1.8754 6.23777 1.94125 6.12056 2.05846C6.00335 2.17567 5.9375 2.33464 5.9375 2.5004V5.6254H4.4878L4.99149 2.60317C5.00505 2.52218 5.00251 2.43932 4.98403 2.35932C4.96555 2.27932 4.93148 2.20374 4.88378 2.13691C4.83608 2.07007 4.77567 2.0133 4.70602 1.96982C4.63637 1.92634 4.55883 1.89701 4.47783 1.88351C4.39684 1.87001 4.31398 1.8726 4.23399 1.89113C4.154 1.90966 4.07845 1.94378 4.01164 1.99152C3.94484 2.03927 3.8881 2.09971 3.84467 2.16939C3.80123 2.23907 3.77196 2.31663 3.75851 2.39763L3.13351 6.14763C3.13255 6.15347 3.13232 6.15923 3.13149 6.16503C3.12996 6.17624 3.12855 6.18749 3.12759 6.1989C3.12664 6.21027 3.12622 6.22156 3.12587 6.23285C3.12572 6.23873 3.125 6.24449 3.125 6.2504C3.125 6.25597 3.12538 6.26142 3.12542 6.26695C3.12553 6.27081 3.12553 6.27462 3.12573 6.27844C3.13327 7.0764 3.41783 7.84696 3.93073 8.4583C4.44362 9.06964 5.15299 9.48379 5.9375 9.62991V17.5004C5.9375 17.6662 6.00335 17.8251 6.12056 17.9423C6.23777 18.0595 6.39674 18.1254 6.5625 18.1254C6.72826 18.1254 6.88723 18.0595 7.00444 17.9423C7.12165 17.8251 7.1875 17.6662 7.1875 17.5004V9.62991C7.97201 9.48379 8.68138 9.06964 9.19427 8.4583C9.70717 7.84695 9.99173 7.0764 9.99928 6.27844C9.99947 6.27462 9.99947 6.27081 9.99958 6.26695C9.99962 6.26142 10 6.25597 10 6.2504C10 6.24449 9.99927 6.23873 9.99912 6.23285Z" fill="#1F2937"/>
<path d="M16.562 2.48894C16.5618 2.47605 16.561 2.46315 16.56 2.45022C16.5593 2.44144 16.5585 2.43275 16.5575 2.42409C16.5561 2.41329 16.5544 2.4025 16.5525 2.3917C16.5506 2.38083 16.5485 2.37007 16.5461 2.35943C16.5441 2.35096 16.5419 2.34253 16.5396 2.3341C16.5361 2.32155 16.5324 2.30919 16.5281 2.29698C16.5269 2.29347 16.5262 2.28992 16.5249 2.28641C16.5235 2.28264 16.5217 2.27913 16.5203 2.27539C16.5155 2.26315 16.5105 2.25112 16.505 2.2393C16.5015 2.2316 16.4978 2.22399 16.494 2.21649C16.4889 2.20642 16.4835 2.19652 16.4778 2.18678C16.4727 2.17804 16.4676 2.16946 16.4622 2.16103C16.457 2.15309 16.4516 2.14539 16.4461 2.13768C16.4395 2.12837 16.4328 2.11925 16.4257 2.1104C16.4206 2.10388 16.4151 2.09759 16.4097 2.09129C16.4019 2.08229 16.394 2.0734 16.3857 2.0649C16.3799 2.05894 16.3739 2.05322 16.3678 2.0475C16.3595 2.03957 16.3511 2.03178 16.3424 2.02435C16.3354 2.01836 16.3281 2.01271 16.3208 2.00703C16.3126 2.00069 16.3044 1.9944 16.296 1.98845C16.2873 1.98238 16.2784 1.9767 16.2694 1.97109C16.2618 1.96633 16.2542 1.96152 16.2464 1.95709C16.2362 1.95129 16.2258 1.94595 16.2153 1.94073C16.2081 1.93714 16.2009 1.93356 16.1935 1.93024C16.1825 1.92528 16.1712 1.92078 16.1598 1.91643C16.1523 1.91357 16.1447 1.91071 16.137 1.90811C16.1261 1.90441 16.115 1.90117 16.1039 1.89808C16.0949 1.8956 16.086 1.89327 16.077 1.89117C16.0671 1.88892 16.0571 1.88698 16.047 1.88519C16.036 1.8832 16.0251 1.88152 16.014 1.88015C16.0055 1.87912 15.9969 1.87828 15.9883 1.87756C15.9755 1.87653 15.9627 1.87588 15.9497 1.87561C15.9456 1.87553 15.9417 1.875 15.9375 1.875C15.9338 1.875 15.9301 1.8755 15.9263 1.87557C15.9135 1.8758 15.9007 1.87649 15.8878 1.87752C15.879 1.8782 15.8703 1.879 15.8616 1.88007C15.8508 1.88141 15.84 1.88309 15.8292 1.885C15.8184 1.8869 15.8076 1.889 15.797 1.89148C15.7885 1.89342 15.7801 1.89564 15.7716 1.89796C15.7591 1.9014 15.7467 1.90517 15.7345 1.90941C15.731 1.91059 15.7275 1.91135 15.7239 1.91261C15.7162 1.91543 15.7087 1.91879 15.701 1.92165C15.6981 1.92283 15.6951 1.92386 15.6922 1.92508C14.0821 2.53021 12.7926 4.5055 11.8596 7.79838C11.4364 9.31787 11.1293 10.8673 10.9411 12.4334C10.9318 12.5206 10.9409 12.6088 10.9679 12.6922C10.9948 12.7756 11.0391 12.8525 11.0977 12.9177C11.1563 12.9829 11.228 13.0351 11.308 13.0708C11.3881 13.1065 11.4748 13.125 11.5625 13.125H15.3125V17.5C15.3125 17.6658 15.3784 17.8247 15.4956 17.9419C15.6128 18.0592 15.7718 18.125 15.9375 18.125C16.1033 18.125 16.2623 18.0592 16.3795 17.9419C16.4967 17.8247 16.5625 17.6658 16.5625 17.5V2.5C16.5625 2.49626 16.562 2.49268 16.562 2.48894Z" fill="#1F2937"/>
</g>
<defs>
<clipPath id="clip0_34_1292">
<rect width="20" height="20" fill="white"/>
</clipPath>
</defs>
</svg>
