<svg width="35" height="20" viewBox="0 0 35 20" fill="none" xmlns="http://www.w3.org/2000/svg">
<path d="M35 10C34.9996 12.651 33.9529 15.1935 32.09 17.0686C30.227 18.9437 27.7002 19.9981 25.0648 20H9.94104C7.30452 20 4.77597 18.9464 2.91166 17.0711C1.04736 15.1957 0 12.6522 0 10C0 7.34783 1.04736 4.8043 2.91166 2.92893C4.77597 1.05357 7.30452 0 9.94104 0H25.0575C27.6929 0.000388115 30.2203 1.05328 32.0844 2.92729C33.9484 4.8013 34.9966 7.3431 34.9985 9.99413L35 10ZM25.059 3.33284C24.1891 3.33284 23.3279 3.50518 22.5243 3.84002C21.7207 4.17485 20.9905 4.66563 20.3755 5.28432C19.7604 5.90301 19.2725 6.63751 18.9397 7.44587C18.6068 8.25424 18.4355 9.12063 18.4355 9.9956C18.4355 10.8706 18.6068 11.737 18.9397 12.5453C19.2725 13.3537 19.7604 14.0882 20.3755 14.7069C20.9905 15.3256 21.7207 15.8163 22.5243 16.1512C23.3279 16.486 24.1891 16.6584 25.059 16.6584C25.9288 16.6585 26.7901 16.4864 27.5938 16.1517C28.3974 15.8171 29.1277 15.3265 29.7429 14.7079C30.3581 14.0894 30.8461 13.355 31.1791 12.5467C31.5122 11.7384 31.6837 10.872 31.6839 9.99707C31.6841 9.1221 31.5129 8.25566 31.1803 7.44723C30.8476 6.63879 30.3599 5.90419 29.7449 5.28536C29.13 4.66653 28.4 4.17559 27.5965 3.84058C26.7929 3.50556 25.9317 3.33304 25.0619 3.33284H25.059Z" fill="#756EF3"/>
</svg>
