<svg width="50" height="50" viewBox="0 0 50 50" fill="none" xmlns="http://www.w3.org/2000/svg">
<g filter="url(#filter0_d_34_1730)">
<circle cx="25" cy="25" r="25" fill="#756EF3"/>
<path d="M25.75 17C25.75 16.5858 25.4142 16.25 25 16.25C24.5858 16.25 24.25 16.5858 24.25 17L24.25 24.25H17C16.5858 24.25 16.25 24.5858 16.25 25C16.25 25.4142 16.5858 25.75 17 25.75H24.25V33C24.25 33.4142 24.5858 33.75 25 33.75C25.4142 33.75 25.75 33.4142 25.75 33V25.75H33C33.4142 25.75 33.75 25.4142 33.75 25C33.75 24.5858 33.4142 24.25 33 24.25H25.75L25.75 17Z" fill="white"/>
</g>
<defs>
<filter id="filter0_d_34_1730" x="-4" y="0" width="58" height="58" filterUnits="userSpaceOnUse" color-interpolation-filters="sRGB">
<feFlood flood-opacity="0" result="BackgroundImageFix"/>
<feColorMatrix in="SourceAlpha" type="matrix" values="0 0 0 0 0 0 0 0 0 0 0 0 0 0 0 0 0 0 127 0" result="hardAlpha"/>
<feOffset dy="4"/>
<feGaussianBlur stdDeviation="2"/>
<feComposite in2="hardAlpha" operator="out"/>
<feColorMatrix type="matrix" values="0 0 0 0 0 0 0 0 0 0 0 0 0 0 0 0 0 0 0.25 0"/>
<feBlend mode="normal" in2="BackgroundImageFix" result="effect1_dropShadow_34_1730"/>
<feBlend mode="normal" in="SourceGraphic" in2="effect1_dropShadow_34_1730" result="shape"/>
</filter>
</defs>
</svg>
