<svg width="318" height="50" viewBox="0 0 318 50" fill="none" xmlns="http://www.w3.org/2000/svg">
<g filter="url(#filter0_d_34_2561)">
<circle cx="159" cy="25" r="25" fill="#756EF3"/>
<path d="M159.75 17C159.75 16.5858 159.414 16.25 159 16.25C158.586 16.25 158.25 16.5858 158.25 17L158.25 24.25H151C150.586 24.25 150.25 24.5858 150.25 25C150.25 25.4142 150.586 25.75 151 25.75H158.25V33C158.25 33.4142 158.586 33.75 159 33.75C159.414 33.75 159.75 33.4142 159.75 33V25.75H167C167.414 25.75 167.75 25.4142 167.75 25C167.75 24.5858 167.414 24.25 167 24.25H159.75L159.75 17Z" fill="white"/>
</g>
<path fill-rule="evenodd" clip-rule="evenodd" d="M88.419 28.732C88.419 32.31 86.31 34.419 82.732 34.419H74.95C71.363 34.419 69.25 32.31 69.25 28.732V20.932C69.25 17.359 70.564 15.25 74.143 15.25H76.143C76.861 15.251 77.537 15.588 77.967 16.163L78.88 17.377C79.312 17.951 79.988 18.289 80.706 18.29H83.536C87.123 18.29 88.447 20.116 88.447 23.767L88.419 28.732Z" stroke="#848A94" stroke-width="1.5" stroke-linecap="round" stroke-linejoin="round"/>
<path d="M74.4812 27.4629H83.2162" stroke="#848A94" stroke-width="1.5" stroke-linecap="round" stroke-linejoin="round"/>
<path d="M9.15722 33.7714V30.7047C9.1572 29.9246 9.79312 29.2908 10.581 29.2856H13.4671C14.2587 29.2856 14.9005 29.9209 14.9005 30.7047V30.7047V33.7809C14.9003 34.4432 15.4343 34.9845 16.103 35H18.0271C19.9451 35 21.5 33.4607 21.5 31.5618V31.5618V22.8378C21.4898 22.0908 21.1355 21.3893 20.538 20.933L13.9577 15.6853C12.8049 14.7716 11.1662 14.7716 10.0134 15.6853L3.46203 20.9426C2.86226 21.397 2.50739 22.0997 2.5 22.8474V31.5618C2.5 33.4607 4.05488 35 5.97291 35H7.89696C8.58235 35 9.13797 34.4499 9.13797 33.7714V33.7714" stroke="#848A94" stroke-width="1.5" stroke-linecap="round" stroke-linejoin="round"/>
<path fill-rule="evenodd" clip-rule="evenodd" d="M229 25.015C229 19.7471 233.21 15 239.02 15C244.7 15 249 19.657 249 24.985C249 31.1642 243.96 35 239 35C237.36 35 235.54 34.5593 234.08 33.698C233.57 33.3876 233.14 33.1572 232.59 33.3375L230.57 33.9384C230.06 34.0986 229.6 33.698 229.75 33.1572L230.42 30.9139C230.53 30.6034 230.51 30.2729 230.35 30.0125C229.49 28.4301 229 26.6975 229 25.015ZM237.7 25.015C237.7 25.7261 238.27 26.2969 238.98 26.307C239.69 26.307 240.26 25.7261 240.26 25.025C240.26 24.314 239.69 23.7431 238.98 23.7431C238.28 23.7331 237.7 24.314 237.7 25.015ZM242.31 25.025C242.31 25.7261 242.88 26.307 243.59 26.307C244.3 26.307 244.87 25.7261 244.87 25.025C244.87 24.314 244.3 23.7431 243.59 23.7431C242.88 23.7431 242.31 24.314 242.31 25.025ZM234.37 26.307C233.67 26.307 233.09 25.7261 233.09 25.025C233.09 24.314 233.66 23.7431 234.37 23.7431C235.08 23.7431 235.65 24.314 235.65 25.025C235.65 25.7261 235.08 26.2969 234.37 26.307Z" fill="#756EF3"/>
<path fill-rule="evenodd" clip-rule="evenodd" d="M305.985 28.3462C302.117 28.3462 298.814 28.931 298.814 31.2729C298.814 33.6148 302.096 34.2205 305.985 34.2205C309.852 34.2205 313.154 33.6348 313.154 31.2938C313.154 28.9529 309.873 28.3462 305.985 28.3462Z" stroke="#848A94" stroke-width="1.5" stroke-linecap="round" stroke-linejoin="round"/>
<path fill-rule="evenodd" clip-rule="evenodd" d="M305.985 25.0059C308.523 25.0059 310.58 22.9478 310.58 20.4097C310.58 17.8716 308.523 15.8145 305.985 15.8145C303.447 15.8145 301.388 17.8716 301.388 20.4097C301.38 22.9392 303.424 24.9973 305.952 25.0059H305.985Z" stroke="#848A94" stroke-width="1.5" stroke-linecap="round" stroke-linejoin="round"/>
<defs>
<filter id="filter0_d_34_2561" x="130" y="0" width="58" height="58" filterUnits="userSpaceOnUse" color-interpolation-filters="sRGB">
<feFlood flood-opacity="0" result="BackgroundImageFix"/>
<feColorMatrix in="SourceAlpha" type="matrix" values="0 0 0 0 0 0 0 0 0 0 0 0 0 0 0 0 0 0 127 0" result="hardAlpha"/>
<feOffset dy="4"/>
<feGaussianBlur stdDeviation="2"/>
<feComposite in2="hardAlpha" operator="out"/>
<feColorMatrix type="matrix" values="0 0 0 0 0 0 0 0 0 0 0 0 0 0 0 0 0 0 0.25 0"/>
<feBlend mode="normal" in2="BackgroundImageFix" result="effect1_dropShadow_34_2561"/>
<feBlend mode="normal" in="SourceGraphic" in2="effect1_dropShadow_34_2561" result="shape"/>
</filter>
</defs>
</svg>
