<svg width="318" height="50" viewBox="0 0 318 50" fill="none" xmlns="http://www.w3.org/2000/svg">
<g filter="url(#filter0_d_34_3007)">
<circle cx="159" cy="25" r="25" fill="#756EF3"/>
<path d="M159.75 17C159.75 16.5858 159.414 16.25 159 16.25C158.586 16.25 158.25 16.5858 158.25 17L158.25 24.25H151C150.586 24.25 150.25 24.5858 150.25 25C150.25 25.4142 150.586 25.75 151 25.75H158.25V33C158.25 33.4142 158.586 33.75 159 33.75C159.414 33.75 159.75 33.4142 159.75 33V25.75H167C167.414 25.75 167.75 25.4142 167.75 25C167.75 24.5858 167.414 24.25 167 24.25H159.75L159.75 17Z" fill="white"/>
</g>
<path fill-rule="evenodd" clip-rule="evenodd" d="M88.4189 28.732C88.4189 32.31 86.3099 34.419 82.7319 34.419H74.9499C71.3629 34.419 69.2499 32.31 69.2499 28.732V20.932C69.2499 17.359 70.5639 15.25 74.1429 15.25H76.1429C76.8609 15.251 77.5369 15.588 77.9669 16.163L78.8799 17.377C79.3119 17.951 79.9879 18.289 80.7059 18.29H83.5359C87.1229 18.29 88.4469 20.116 88.4469 23.767L88.4189 28.732Z" stroke="#848A94" stroke-width="1.5" stroke-linecap="round" stroke-linejoin="round"/>
<path d="M74.481 27.4629H83.216" stroke="#848A94" stroke-width="1.5" stroke-linecap="round" stroke-linejoin="round"/>
<path d="M9.15722 33.7714V30.7047C9.1572 29.9246 9.79312 29.2908 10.581 29.2856H13.4671C14.2587 29.2856 14.9005 29.9209 14.9005 30.7047V30.7047V33.7809C14.9003 34.4432 15.4343 34.9845 16.103 35H18.0271C19.9451 35 21.5 33.4607 21.5 31.5618V31.5618V22.8378C21.4898 22.0908 21.1355 21.3893 20.538 20.933L13.9577 15.6853C12.8049 14.7716 11.1662 14.7716 10.0134 15.6853L3.46203 20.9426C2.86226 21.397 2.50739 22.0997 2.5 22.8474V31.5618C2.5 33.4607 4.05488 35 5.97291 35H7.89696C8.58235 35 9.13797 34.4499 9.13797 33.7714V33.7714" stroke="#848A94" stroke-width="1.5" stroke-linecap="round" stroke-linejoin="round"/>
<path fill-rule="evenodd" clip-rule="evenodd" d="M246.071 32.0699C243.015 35.1263 238.49 35.7867 234.786 34.074C234.24 33.8539 233.791 33.676 233.365 33.676C232.178 33.683 230.701 34.8339 229.933 34.067C229.166 33.2991 230.317 31.8206 230.317 30.6266C230.317 30.2004 230.146 29.7602 229.926 29.2124C228.213 25.5096 228.874 20.9827 231.93 17.9272C235.832 14.0244 242.17 14.0244 246.071 17.9262C249.98 21.835 249.973 28.1681 246.071 32.0699Z" stroke="#848A94" stroke-width="1.5" stroke-linecap="round" stroke-linejoin="round"/>
<path d="M242.939 25.4131H242.948" stroke="#848A94" stroke-width="1.5" stroke-linecap="round" stroke-linejoin="round"/>
<path d="M238.93 25.4131H238.939" stroke="#848A94" stroke-width="1.5" stroke-linecap="round" stroke-linejoin="round"/>
<path d="M234.921 25.4131H234.93" stroke="#848A94" stroke-width="1.5" stroke-linecap="round" stroke-linejoin="round"/>
<path fill-rule="evenodd" clip-rule="evenodd" d="M311.294 20.2911C311.294 23.2281 308.939 25.5831 306 25.5831C303.062 25.5831 300.706 23.2281 300.706 20.2911C300.706 17.354 303.062 15 306 15C308.939 15 311.294 17.354 311.294 20.2911ZM306 35C301.662 35 298 34.295 298 31.575C298 28.8539 301.685 28.1739 306 28.1739C310.339 28.1739 314 28.8789 314 31.599C314 34.32 310.315 35 306 35Z" fill="#756EF3"/>
<defs>
<filter id="filter0_d_34_3007" x="130" y="0" width="58" height="58" filterUnits="userSpaceOnUse" color-interpolation-filters="sRGB">
<feFlood flood-opacity="0" result="BackgroundImageFix"/>
<feColorMatrix in="SourceAlpha" type="matrix" values="0 0 0 0 0 0 0 0 0 0 0 0 0 0 0 0 0 0 127 0" result="hardAlpha"/>
<feOffset dy="4"/>
<feGaussianBlur stdDeviation="2"/>
<feComposite in2="hardAlpha" operator="out"/>
<feColorMatrix type="matrix" values="0 0 0 0 0 0 0 0 0 0 0 0 0 0 0 0 0 0 0.25 0"/>
<feBlend mode="normal" in2="BackgroundImageFix" result="effect1_dropShadow_34_3007"/>
<feBlend mode="normal" in="SourceGraphic" in2="effect1_dropShadow_34_3007" result="shape"/>
</filter>
</defs>
</svg>
