<svg width="18" height="18" viewBox="0 0 18 18" fill="none" xmlns="http://www.w3.org/2000/svg">
<path fill-rule="evenodd" clip-rule="evenodd" d="M7.23507 2.25H10.7649C11.5049 2.25516 12.0879 2.63965 12.426 3.30556C12.4745 3.40056 12.5324 3.51738 12.602 3.66091L13.0844 4.67533C13.1109 4.73121 13.1668 4.76658 13.2432 4.76678L13.4017 4.7711C15.1349 4.86168 16.5 6.29419 16.5 8.0346V12.4819C16.5 14.2864 15.0352 15.75 13.2285 15.75H4.77225C2.96497 15.75 1.5 14.2866 1.5 12.4819V8.0346C1.5 6.22949 2.96473 4.76658 4.73637 4.76773L4.79251 4.7653C4.846 4.75843 4.89306 4.7244 4.91608 4.67581L5.28449 3.89828L5.57365 3.30632C5.9134 2.63921 6.49541 2.25516 7.23507 2.25ZM10.761 3.3738L7.24293 3.37379C6.93746 3.37592 6.73106 3.51211 6.57644 3.81571C6.53129 3.90445 6.47604 4.0165 6.40862 4.15586L5.9332 5.15602C5.74562 5.552 5.36891 5.82437 4.90006 5.88338L4.77225 5.89039C3.586 5.89039 2.625 6.8502 2.625 8.0346V12.4819C2.625 13.6659 3.58628 14.6262 4.77225 14.6262H13.2285C14.4138 14.6262 15.375 13.6658 15.375 12.4819V8.0346C15.375 6.89279 14.4792 5.95277 13.3577 5.89396L13.1147 5.88538C12.6634 5.84542 12.2635 5.56981 12.0674 5.15554L11.5434 4.05632L11.4233 3.81526C11.2695 3.51227 11.0628 3.37592 10.761 3.3738ZM6.05371 9.9966C6.04064 8.38313 7.37486 7.04428 9.00338 7.04612L9.1548 7.05014C10.7099 7.13107 11.9492 8.42348 11.9465 9.99825C11.9437 11.6182 10.6222 12.9391 9.0015 12.9409C7.37794 12.9418 6.05277 11.6155 6.05371 9.9966ZM10.8215 9.9963C10.8232 8.9913 10.0055 8.1711 9.00202 8.16998L8.88247 8.17373C7.9335 8.23553 7.17099 9.03907 7.1787 9.99232C7.17813 10.9955 7.99965 11.8177 9.00052 11.8171C10.0006 11.8159 10.8197 10.9972 10.8215 9.9963ZM12.4529 8.18077C12.533 8.21302 12.6046 8.23185 12.677 8.23927L12.7502 8.24302L12.8245 8.23935C12.9968 8.22225 13.1583 8.1462 13.2812 8.02252C13.4235 7.87162 13.5002 7.69028 13.5002 7.49414C13.5002 7.39205 13.4792 7.29086 13.4378 7.1978L13.4208 7.15403C13.3919 7.09229 13.34 7.01907 13.2784 6.9584C13.0727 6.75304 12.7436 6.6876 12.467 6.79712C12.3737 6.83817 12.3054 6.88481 12.2388 6.94278C12.1512 7.02799 12.1028 7.10633 12.0619 7.1992C12.0211 7.29086 12.0002 7.39205 12.0002 7.49414C12.0002 7.68638 12.0778 7.87267 12.2119 8.0151C12.2865 8.09085 12.3637 8.14117 12.4529 8.18077Z" fill="white"/>
</svg>
