<svg width="19" height="19" viewBox="0 0 19 19" fill="none" xmlns="http://www.w3.org/2000/svg">
<path fill-rule="evenodd" clip-rule="evenodd" d="M10.2917 3.95856C10.2917 3.52134 9.93722 3.16689 9.49999 3.16689C9.06277 3.16689 8.70832 3.52134 8.70832 3.95856V8.70857H3.95831C3.52109 8.70857 3.16665 9.06302 3.16665 9.50024C3.16665 9.93747 3.52109 10.2919 3.95831 10.2919H8.70832V15.0419C8.70832 15.4791 9.06277 15.8336 9.49999 15.8336C9.93722 15.8336 10.2917 15.4791 10.2917 15.0419V10.2919H15.0417C15.4789 10.2919 15.8333 9.93747 15.8333 9.50024C15.8333 9.06302 15.4789 8.70857 15.0417 8.70857H10.2917V3.95856Z" fill="#010F07"/>
</svg>
