<svg width="18" height="18" viewBox="0 0 18 18" fill="none" xmlns="http://www.w3.org/2000/svg">
<g opacity="0.5">
<path fill-rule="evenodd" clip-rule="evenodd" d="M11.8874 1.87561C12.3606 1.87561 12.8331 1.94236 13.2824 2.09311C16.0506 2.99311 17.0481 6.03061 16.2149 8.68561C15.7424 10.0424 14.9699 11.2806 13.9581 12.2924C12.5099 13.6949 10.9206 14.9399 9.20989 16.0124L9.02239 16.1256L8.82739 16.0049C7.11064 14.9399 5.51239 13.6949 4.05064 12.2849C3.04564 11.2731 2.27239 10.0424 1.79239 8.68561C0.94489 6.03061 1.94239 2.99311 4.74064 2.07736C4.95814 2.00236 5.18239 1.94986 5.40739 1.92061H5.49739C5.70814 1.88986 5.91739 1.87561 6.12739 1.87561H6.20989C6.68239 1.88986 7.13989 1.97236 7.58314 2.12311H7.62739C7.65739 2.13736 7.67989 2.15311 7.69489 2.16736C7.86064 2.22061 8.01739 2.28061 8.16739 2.36311L8.45239 2.49061C8.52126 2.52734 8.59856 2.58346 8.66536 2.63196C8.70769 2.66269 8.7458 2.69036 8.77489 2.70811C8.78713 2.71533 8.79957 2.72259 8.81211 2.72991C8.87642 2.76745 8.94341 2.80655 8.99989 2.84986C9.83314 2.21311 10.8449 1.86811 11.8874 1.87561ZM13.8824 7.27561C14.1899 7.26736 14.4524 7.02061 14.4749 6.70486V6.61561C14.4974 5.56486 13.8606 4.61311 12.8924 4.24561C12.5849 4.13986 12.2474 4.30561 12.1349 4.62061C12.0299 4.93561 12.1949 5.28061 12.5099 5.39236C12.9906 5.57236 13.3124 6.04561 13.3124 6.56986V6.59311C13.2981 6.76486 13.3499 6.93061 13.4549 7.05811C13.5599 7.18561 13.7174 7.25986 13.8824 7.27561Z" fill="white"/>
</g>
</svg>
