<svg width="19" height="17" viewBox="0 0 19 17" fill="none" xmlns="http://www.w3.org/2000/svg">
<path d="M1 1.99988C1 1.44759 1.44772 0.999878 2 0.999878H17C17.5523 0.999878 18 1.44759 18 1.99988V11.8181C18 12.3703 17.5523 12.8181 17 12.8181H12.486C12.1792 12.8181 11.8893 12.9589 11.6997 13.2002L10.2863 14.9991C9.88594 15.5087 9.11406 15.5087 8.71368 14.9991L7.30028 13.2002C7.1107 12.9589 6.82083 12.8181 6.51396 12.8181H2C1.44772 12.8181 1 12.3703 1 11.8181V1.99988Z" stroke="#374151" stroke-width="1.5" stroke-linejoin="round"/>
<path d="M6 9.99988L6.83916 7.84603M12 9.99988L10.9091 7.84603M6.83916 7.84603L8.55423 3.44402C8.6186 3.27882 8.85017 3.27285 8.92296 3.43452L10.9091 7.84603M6.83916 7.84603H10.9091" stroke="#374151" stroke-width="1.5" stroke-linecap="round" stroke-linejoin="round"/>
</svg>
