<svg width="20" height="20" viewBox="0 0 20 20" fill="none" xmlns="http://www.w3.org/2000/svg">
<path d="M8.60851 13.8274H3.35791" stroke="#002055" stroke-width="1.5" stroke-linecap="round" stroke-linejoin="round"/>
<path d="M10.9504 5.75023H16.201" stroke="#002055" stroke-width="1.5" stroke-linecap="round" stroke-linejoin="round"/>
<path fill-rule="evenodd" clip-rule="evenodd" d="M7.27195 5.70521C7.27195 4.6255 6.39015 3.75 5.30266 3.75C4.21517 3.75 3.33337 4.6255 3.33337 5.70521C3.33337 6.78492 4.21517 7.66042 5.30266 7.66042C6.39015 7.66042 7.27195 6.78492 7.27195 5.70521Z" stroke="#002055" stroke-width="1.5" stroke-linecap="round" stroke-linejoin="round"/>
<path fill-rule="evenodd" clip-rule="evenodd" d="M16.6667 13.7948C16.6667 12.7151 15.7856 11.8396 14.6981 11.8396C13.6099 11.8396 12.7281 12.7151 12.7281 13.7948C12.7281 14.8745 13.6099 15.75 14.6981 15.75C15.7856 15.75 16.6667 14.8745 16.6667 13.7948Z" stroke="#002055" stroke-width="1.5" stroke-linecap="round" stroke-linejoin="round"/>
</svg>
