<svg width="35" height="20" viewBox="0 0 35 20" fill="none" xmlns="http://www.w3.org/2000/svg">
<path d="M0 10C0.000385284 12.651 1.04707 15.1935 2.91003 17.0686C4.77299 18.9437 7.29981 19.9981 9.93521 20H25.059C27.6955 20 30.224 18.9464 32.0883 17.0711C33.9526 15.1957 35 12.6522 35 10C35 7.34783 33.9526 4.8043 32.0883 2.92893C30.224 1.05357 27.6955 0 25.059 0H9.9425C7.3071 0.000388115 4.77967 1.05328 2.91561 2.92729C1.05156 4.8013 0.00339127 7.3431 0.00145721 9.99413L0 10ZM9.94104 3.33284C10.8109 3.33284 11.6721 3.50518 12.4757 3.84002C13.2793 4.17485 14.0095 4.66563 14.6245 5.28432C15.2396 5.90301 15.7275 6.63751 16.0603 7.44587C16.3932 8.25424 16.5645 9.12063 16.5645 9.9956C16.5645 10.8706 16.3932 11.737 16.0603 12.5453C15.7275 13.3537 15.2396 14.0882 14.6245 14.7069C14.0095 15.3256 13.2793 15.8163 12.4757 16.1512C11.6721 16.486 10.8109 16.6584 9.94104 16.6584C9.07124 16.6585 8.20991 16.4864 7.40624 16.1517C6.60257 15.8171 5.8723 15.3265 5.25711 14.7079C4.64193 14.0894 4.15389 13.355 3.82085 12.5467C3.48781 11.7384 3.31631 10.872 3.31611 9.99707C3.31592 9.1221 3.48705 8.25566 3.81974 7.44723C4.15242 6.63879 4.64014 5.90419 5.25505 5.28536C5.86996 4.66653 6.60002 4.17559 7.40354 3.84058C8.20707 3.50556 9.06832 3.33304 9.93813 3.33284H9.94104Z" fill="#D7D7D7"/>
</svg>
