<svg width="16" height="16" viewBox="0 0 16 16" fill="none" xmlns="http://www.w3.org/2000/svg">
<g clip-path="url(#clip0_34_1031)">
<g filter="url(#filter0_d_34_1031)">
<path d="M8.66668 7.33325V3.99992C8.66668 3.82311 8.59644 3.65354 8.47142 3.52851C8.34639 3.40349 8.17682 3.33325 8.00001 3.33325C7.8232 3.33325 7.65363 3.40349 7.52861 3.52851C7.40358 3.65354 7.33334 3.82311 7.33334 3.99992V7.99992C7.33334 8.17673 7.40358 8.3463 7.52861 8.47132C7.65363 8.59635 7.8232 8.66659 8.00001 8.66659H11.3333C11.5102 8.66659 11.6797 8.59635 11.8047 8.47132C11.9298 8.3463 12 8.17673 12 7.99992C12 7.82311 11.9298 7.65354 11.8047 7.52851C11.6797 7.40349 11.5102 7.33325 11.3333 7.33325H8.66668ZM8.00001 14.6666C4.31801 14.6666 1.33334 11.6819 1.33334 7.99992C1.33334 4.31792 4.31801 1.33325 8.00001 1.33325C11.682 1.33325 14.6667 4.31792 14.6667 7.99992C14.6667 11.6819 11.682 14.6666 8.00001 14.6666Z" fill="#32B768"/>
<path d="M9.16668 6.83325V3.99992C9.16668 3.6905 9.04376 3.39375 8.82497 3.17496C8.60618 2.95617 8.30943 2.83325 8.00001 2.83325C7.69059 2.83325 7.39385 2.95617 7.17505 3.17496C6.95626 3.39375 6.83334 3.6905 6.83334 3.99992V7.99992C6.83334 8.30934 6.95626 8.60608 7.17505 8.82488C7.39385 9.04367 7.69059 9.16659 8.00001 9.16659H11.3333C11.6428 9.16659 11.9395 9.04367 12.1583 8.82488C12.3771 8.60608 12.5 8.30934 12.5 7.99992C12.5 7.6905 12.3771 7.39375 12.1583 7.17496C11.9395 6.95617 11.6428 6.83325 11.3333 6.83325H9.16668ZM8.00001 14.1666C4.59415 14.1666 1.83334 11.4058 1.83334 7.99992C1.83334 4.59406 4.59415 1.83325 8.00001 1.83325C11.4059 1.83325 14.1667 4.59406 14.1667 7.99992C14.1667 11.4058 11.4059 14.1666 8.00001 14.1666Z" stroke="black"/>
</g>
</g>
<defs>
<filter id="filter0_d_34_1031" x="-2.66666" y="1.33325" width="21.3333" height="21.3333" filterUnits="userSpaceOnUse" color-interpolation-filters="sRGB">
<feFlood flood-opacity="0" result="BackgroundImageFix"/>
<feColorMatrix in="SourceAlpha" type="matrix" values="0 0 0 0 0 0 0 0 0 0 0 0 0 0 0 0 0 0 127 0" result="hardAlpha"/>
<feOffset dy="4"/>
<feGaussianBlur stdDeviation="2"/>
<feComposite in2="hardAlpha" operator="out"/>
<feColorMatrix type="matrix" values="0 0 0 0 0 0 0 0 0 0 0 0 0 0 0 0 0 0 0.25 0"/>
<feBlend mode="normal" in2="BackgroundImageFix" result="effect1_dropShadow_34_1031"/>
<feBlend mode="normal" in="SourceGraphic" in2="effect1_dropShadow_34_1031" result="shape"/>
</filter>
<clipPath id="clip0_34_1031">
<rect width="16" height="16" fill="white"/>
</clipPath>
</defs>
</svg>
